<?xml version="1.0" encoding="iso-8859-1"?>
<!-- Generator: Adobe Illustrator 19.0.0, SVG Export Plug-In . SVG Version: 6.00 Build 0)  -->
<svg version="1.1" id="Capa_1" xmlns="http://www.w3.org/2000/svg" xmlns:xlink="http://www.w3.org/1999/xlink" x="0px" y="0px"
	 viewBox="0 0 60 60" style="enable-background:new 0 0 60 60;" xml:space="preserve">
<g>
	<path d="M45,19.586V14c0-7.72-6.729-14-15-14S15,6.28,15,14v5.586C10.107,23.807,7,30.046,7,37c0,12.683,10.318,23,23,23
		s23-10.317,23-23C53,30.046,49.893,23.807,45,19.586z M17,18.026V14c0-6.729,5.71-12,13-12s13,5.271,13,12v4.026
		c-0.085-0.058-0.174-0.107-0.26-0.164c-0.323-0.216-0.652-0.423-0.986-0.622c-0.158-0.094-0.317-0.185-0.478-0.275
		c-0.093-0.052-0.183-0.108-0.276-0.159V14c0-5.607-4.832-10-11-10S19,8.393,19,14v2.806c-0.093,0.051-0.184,0.107-0.276,0.159
		c-0.16,0.09-0.32,0.181-0.478,0.275c-0.334,0.2-0.663,0.406-0.986,0.622C17.174,17.919,17.085,17.968,17,18.026z M28.403,14.061
		c-0.09,0.006-0.179,0.013-0.269,0.02c-2.242,0.179-4.417,0.681-6.503,1.501c-0.05,0.02-0.1,0.04-0.15,0.06
		c-0.092,0.037-0.184,0.071-0.275,0.109c-0.052,0.022-0.106,0.041-0.159,0.063c-0.016,0.007-0.032,0.012-0.047,0.019V14
		c0-4.486,3.953-8,9-8s9,3.514,9,8v1.833c-0.016-0.007-0.032-0.012-0.047-0.019c-0.052-0.022-0.106-0.041-0.159-0.063
		c-0.091-0.038-0.183-0.073-0.275-0.109c-0.05-0.02-0.1-0.04-0.15-0.06c-2.086-0.82-4.261-1.322-6.503-1.501
		c-0.09-0.007-0.179-0.014-0.269-0.02C31.068,14.025,30.536,14,30,14S28.932,14.025,28.403,14.061z M30,58C18.42,58,9,48.579,9,37
		c0-7.23,3.674-13.619,9.252-17.398c0.037-0.025,0.075-0.046,0.112-0.07c0.485-0.324,0.986-0.627,1.498-0.911
		c0.188-0.103,0.381-0.195,0.572-0.293c0.366-0.188,0.736-0.371,1.114-0.538c0.261-0.115,0.527-0.219,0.792-0.324
		c0.323-0.127,0.648-0.248,0.978-0.359c0.296-0.1,0.595-0.193,0.896-0.279c0.324-0.093,0.652-0.176,0.982-0.253
		c0.3-0.071,0.6-0.141,0.902-0.198c0.38-0.072,0.765-0.125,1.152-0.176c0.257-0.034,0.512-0.076,0.77-0.101
		C28.673,16.039,29.332,16,30,16s1.327,0.039,1.979,0.1c0.258,0.025,0.513,0.067,0.77,0.101c0.386,0.051,0.772,0.105,1.152,0.176
		c0.303,0.057,0.603,0.128,0.902,0.198c0.33,0.078,0.658,0.16,0.982,0.253c0.301,0.086,0.599,0.18,0.896,0.279
		c0.33,0.111,0.656,0.232,0.978,0.359c0.266,0.104,0.531,0.209,0.792,0.324c0.378,0.167,0.748,0.349,1.114,0.538
		c0.191,0.098,0.384,0.189,0.572,0.293c0.513,0.284,1.013,0.587,1.498,0.911c0.037,0.024,0.075,0.045,0.112,0.07
		C47.326,23.381,51,29.77,51,37C51,48.579,41.58,58,30,58z"/>
	<path d="M30,26c-6.065,0-11,4.935-11,11s4.935,11,11,11s11-4.935,11-11S36.065,26,30,26z M30,46c-4.962,0-9-4.037-9-9s4.038-9,9-9
		s9,4.037,9,9S34.962,46,30,46z"/>
	<path d="M30,23c0.552,0,1-0.447,1-1v-4c0-0.553-0.448-1-1-1s-1,0.447-1,1v4C29,22.553,29.448,23,30,23z"/>
	<path d="M30,51c-0.552,0-1,0.447-1,1v4c0,0.553,0.448,1,1,1s1-0.447,1-1v-4C31,51.447,30.552,51,30,51z"/>
	<path d="M49,36h-4c-0.552,0-1,0.447-1,1s0.448,1,1,1h4c0.552,0,1-0.447,1-1S49.552,36,49,36z"/>
	<path d="M15,38c0.552,0,1-0.447,1-1s-0.448-1-1-1h-4c-0.552,0-1,0.447-1,1s0.448,1,1,1H15z"/>
	<path d="M39.899,27.101c0.195,0.195,0.451,0.293,0.707,0.293s0.512-0.098,0.707-0.293l2.829-2.828c0.391-0.391,0.391-1.023,0-1.414
		s-1.023-0.391-1.414,0l-2.829,2.828C39.509,26.077,39.509,26.71,39.899,27.101z"/>
	<path d="M20.101,46.899c-0.391-0.391-1.023-0.391-1.414,0l-2.829,2.828c-0.391,0.391-0.391,1.023,0,1.414
		c0.195,0.195,0.451,0.293,0.707,0.293s0.512-0.098,0.707-0.293l2.829-2.828C20.491,47.923,20.491,47.29,20.101,46.899z"/>
	<path d="M41.313,46.899c-0.391-0.391-1.023-0.391-1.414,0s-0.391,1.023,0,1.414l2.829,2.828c0.195,0.195,0.451,0.293,0.707,0.293
		s0.512-0.098,0.707-0.293c0.391-0.391,0.391-1.023,0-1.414L41.313,46.899z"/>
	<path d="M18.687,27.101c0.195,0.195,0.451,0.293,0.707,0.293s0.512-0.098,0.707-0.293c0.391-0.391,0.391-1.023,0-1.414
		l-2.829-2.828c-0.391-0.391-1.023-0.391-1.414,0s-0.391,1.023,0,1.414L18.687,27.101z"/>
	<path d="M37,24.876c0.157,0.091,0.33,0.134,0.499,0.134c0.346,0,0.682-0.179,0.867-0.5l2-3.464c0.276-0.479,0.112-1.09-0.366-1.366
		s-1.09-0.113-1.366,0.366l-2,3.464C36.358,23.988,36.521,24.6,37,24.876z"/>
	<path d="M23,49.124c-0.478-0.276-1.09-0.113-1.366,0.366l-2,3.464c-0.276,0.479-0.112,1.09,0.366,1.366
		c0.157,0.091,0.33,0.134,0.499,0.134c0.346,0,0.682-0.179,0.867-0.5l2-3.464C23.642,50.012,23.479,49.4,23,49.124z"/>
	<path d="M46.955,45.634l-3.464-2c-0.48-0.276-1.09-0.111-1.366,0.366c-0.276,0.479-0.112,1.09,0.366,1.366l3.464,2
		c0.158,0.091,0.33,0.134,0.499,0.134c0.346,0,0.682-0.18,0.867-0.5C47.597,46.521,47.433,45.91,46.955,45.634z"/>
	<path d="M13.045,28.366l3.464,2c0.158,0.091,0.33,0.134,0.499,0.134c0.346,0,0.682-0.18,0.867-0.5
		c0.276-0.479,0.112-1.09-0.366-1.366l-3.464-2c-0.48-0.277-1.09-0.112-1.366,0.366S12.567,28.09,13.045,28.366z"/>
	<path d="M33.624,23.477c0.087,0.023,0.174,0.034,0.259,0.034c0.441,0,0.846-0.294,0.965-0.741l1.035-3.863
		c0.143-0.533-0.173-1.082-0.707-1.225c-0.536-0.143-1.082,0.174-1.225,0.707l-1.035,3.863
		C32.773,22.785,33.09,23.334,33.624,23.477z"/>
	<path d="M26.376,50.523c-0.537-0.145-1.082,0.173-1.225,0.707l-1.035,3.863c-0.143,0.533,0.173,1.082,0.707,1.225
		c0.087,0.023,0.174,0.034,0.259,0.034c0.441,0,0.846-0.294,0.965-0.741l1.035-3.863C27.227,51.215,26.91,50.666,26.376,50.523z"/>
	<path d="M48.611,40.952l-3.864-1.036c-0.531-0.144-1.082,0.173-1.225,0.707c-0.143,0.533,0.173,1.082,0.707,1.225l3.864,1.036
		c0.086,0.023,0.174,0.034,0.259,0.034c0.441,0,0.846-0.294,0.965-0.741C49.461,41.644,49.145,41.095,48.611,40.952z"/>
	<path d="M11.389,33.048l3.864,1.036c0.086,0.023,0.174,0.034,0.259,0.034c0.441,0,0.846-0.294,0.965-0.741
		c0.143-0.533-0.173-1.082-0.707-1.225l-3.864-1.036c-0.532-0.145-1.082,0.173-1.225,0.707
		C10.539,32.356,10.855,32.905,11.389,33.048z"/>
	<path d="M25.152,22.77c0.12,0.447,0.523,0.741,0.965,0.741c0.085,0,0.173-0.011,0.259-0.034c0.534-0.143,0.85-0.691,0.707-1.225
		l-1.035-3.863c-0.143-0.534-0.693-0.852-1.225-0.707c-0.534,0.143-0.85,0.691-0.707,1.225L25.152,22.77z"/>
	<path d="M34.848,51.23c-0.143-0.534-0.69-0.854-1.225-0.707c-0.534,0.143-0.85,0.691-0.707,1.225l1.035,3.863
		c0.12,0.447,0.523,0.741,0.965,0.741c0.085,0,0.173-0.011,0.259-0.034c0.534-0.143,0.85-0.691,0.707-1.225L34.848,51.23z"/>
	<path d="M43.523,33.377c0.12,0.447,0.524,0.741,0.965,0.741c0.085,0,0.173-0.011,0.259-0.034l3.864-1.036
		c0.534-0.143,0.85-0.691,0.707-1.225c-0.143-0.534-0.692-0.852-1.225-0.707l-3.864,1.036C43.696,32.295,43.38,32.844,43.523,33.377
		z"/>
	<path d="M16.477,40.623c-0.143-0.534-0.693-0.852-1.225-0.707l-3.864,1.036c-0.534,0.143-0.85,0.691-0.707,1.225
		c0.12,0.447,0.524,0.741,0.965,0.741c0.085,0,0.173-0.011,0.259-0.034l3.864-1.036C16.304,41.705,16.62,41.156,16.477,40.623z"/>
	<path d="M21.634,24.51c0.186,0.321,0.521,0.5,0.867,0.5c0.169,0,0.342-0.043,0.499-0.134c0.479-0.276,0.642-0.888,0.366-1.366
		l-2-3.464C21.09,19.566,20.478,19.403,20,19.68c-0.479,0.276-0.642,0.888-0.366,1.366L21.634,24.51z"/>
	<path d="M38.366,49.49c-0.277-0.479-0.889-0.643-1.366-0.366c-0.479,0.276-0.642,0.888-0.366,1.366l2,3.464
		c0.186,0.321,0.521,0.5,0.867,0.5c0.169,0,0.342-0.043,0.499-0.134c0.479-0.276,0.642-0.888,0.366-1.366L38.366,49.49z"/>
	<path d="M42.124,30c0.186,0.321,0.521,0.5,0.867,0.5c0.169,0,0.341-0.043,0.499-0.134l3.464-2c0.479-0.276,0.642-0.888,0.366-1.366
		c-0.277-0.479-0.887-0.644-1.366-0.366l-3.464,2C42.012,28.91,41.848,29.521,42.124,30z"/>
	<path d="M17.876,44c-0.277-0.479-0.887-0.643-1.366-0.366l-3.464,2c-0.479,0.276-0.642,0.888-0.366,1.366
		c0.186,0.321,0.521,0.5,0.867,0.5c0.169,0,0.341-0.043,0.499-0.134l3.464-2C17.988,45.09,18.152,44.479,17.876,44z"/>
	<path d="M33.293,32.293l-3,3c-0.391,0.391-0.391,1.023,0,1.414C30.488,36.902,30.744,37,31,37s0.512-0.098,0.707-0.293l3-3
		c0.391-0.391,0.391-1.023,0-1.414S33.684,31.902,33.293,32.293z"/>
</g>
<g>
</g>
<g>
</g>
<g>
</g>
<g>
</g>
<g>
</g>
<g>
</g>
<g>
</g>
<g>
</g>
<g>
</g>
<g>
</g>
<g>
</g>
<g>
</g>
<g>
</g>
<g>
</g>
<g>
</g>
</svg>
